<svg width="17" height="18" viewBox="0 0 17 18" fill="none" xmlns="http://www.w3.org/2000/svg">
<path d="M3.96171 0.714844V6.23209M12.7893 0.714844V6.23209M1.75482 3.47346H14.9962C15.2888 3.47346 15.5695 3.58972 15.7765 3.79666C15.9834 4.00359 16.0996 4.28426 16.0996 4.57691V15.6114C16.0996 15.904 15.9834 16.1847 15.7765 16.3917C15.5695 16.5986 15.2888 16.7148 14.9962 16.7148H1.75482C1.46216 16.7148 1.1815 16.5986 0.97456 16.3917C0.767623 16.1847 0.651367 15.904 0.651367 15.6114V4.57691C0.651367 4.28426 0.767623 4.00359 0.97456 3.79666C1.1815 3.58972 1.46216 3.47346 1.75482 3.47346V3.47346Z" stroke="#6B7280"/>
</svg>
