<svg width="557" height="163" viewBox="0 0 557 163" fill="none" xmlns="http://www.w3.org/2000/svg">
<path d="M209.32 42.8491V32.2279H194.472V22.7312C194.472 14.4842 199.976 12.4849 204.2 12.4849C207.272 12.4849 208.808 12.9847 209.448 13.2346V2.73833C208.936 2.36346 206.376 1.48877 202.28 1.48877C191.144 1.48877 182.056 8.7362 182.056 22.1064V32.2279H170.664V42.8491H182.056V92.3315H194.472V42.8491H209.32Z" fill="black"/>
<path d="M444.901 56.0944C445.413 48.3471 451.557 40.7248 461.669 40.7248C472.549 40.7248 478.309 47.4724 478.565 56.0944H444.901ZM480.357 71.7138C478.053 78.4614 473.061 83.8345 463.077 83.8345C452.709 83.8345 444.773 76.3372 444.517 65.591H490.853C490.981 64.8413 491.109 63.3418 491.109 61.8423C491.109 43.099 480.485 30.3535 461.541 30.3535C446.053 30.3535 432.101 43.224 432.101 62.0923C432.101 82.46 446.565 94.2058 463.077 94.2058C477.413 94.2058 487.269 85.8338 490.725 75.2126L480.357 71.7138Z" fill="black"/>
<path d="M421.625 92.3315V1.86365H409.593V92.3315H421.625Z" fill="black"/>
<path d="M350.622 92.3315V83.5846C354.462 90.0823 361.502 93.9559 370.59 93.9559C388.894 93.9559 399.262 79.836 399.262 61.9673C399.262 44.4735 389.662 30.4785 370.974 30.4785C360.734 30.4785 353.566 35.3518 350.622 40.7248V1.86365H338.718V92.3315H350.622ZM386.974 61.9673C386.974 74.9627 379.806 83.4597 368.798 83.4597C358.174 83.4597 350.494 74.9627 350.494 61.9673C350.494 48.9719 358.174 40.8498 368.798 40.8498C379.934 40.8498 386.974 48.9719 386.974 61.9673Z" fill="black"/>
<path d="M242.347 13.2346H231.339V22.9812C231.339 28.2293 228.523 32.2279 221.867 32.2279H218.539V42.8491H230.315V75.8374C230.315 86.7085 236.971 92.9563 247.467 92.9563C251.563 92.9563 254.635 92.2066 255.659 91.8317V81.8353C254.635 82.0852 252.459 82.3351 250.923 82.3351C244.651 82.3351 242.347 79.5861 242.347 74.088V42.8491H255.659V32.2279H242.347V13.2346Z" fill="black"/>
<path d="M158.872 92.3316V32.2279H146.968V92.3316H158.872ZM144.28 9.48599C144.28 14.1093 148.12 17.858 152.856 17.858C157.72 17.858 161.56 14.1093 161.56 9.48599C161.56 4.73768 157.72 0.989014 152.856 0.989014C148.12 0.989014 144.28 4.73768 144.28 9.48599Z" fill="black"/>
<path d="M514.645 92.3317C508.457 92.3317 503.44 87.434 503.44 81.3936C503.44 75.1899 508.457 70.2922 514.645 70.2922C520.999 70.2922 526.016 75.1899 526.016 81.3936C526.016 87.434 520.999 92.3317 514.645 92.3317Z" fill="#3B82F6"/>
<path d="M545.161 92.3317C538.974 92.3317 533.957 87.434 533.957 81.3936C533.957 75.1899 538.974 70.2922 545.161 70.2922C551.516 70.2922 556.533 75.1899 556.533 81.3936C556.533 87.434 551.516 92.3317 545.161 92.3317Z" fill="#FBBF24"/>
<path d="M90.1253 56.9691C90.3813 48.0972 95.2453 41.0997 104.461 41.0997C115.213 41.0997 118.797 47.8473 118.797 56.2193V92.3315H130.829V54.2201C130.829 40.8498 123.533 30.4785 108.813 30.4785C101.773 30.4785 94.6053 32.8526 90.1253 39.2254V1.86365H78.0933V92.3315H90.1253V56.9691Z" fill="black"/>
<path d="M64.9793 23.8558C62.9313 14.2343 54.7393 1.86365 34.2593 1.86365C17.4913 1.86365 4.30729 14.3592 4.30729 28.2293C4.30729 41.4746 13.5233 49.7216 26.4513 52.4707L39.3793 55.2197C48.4673 57.094 52.9473 62.5921 52.9473 68.9648C52.9473 76.7121 46.8033 83.0848 34.2593 83.0848C20.5633 83.0848 13.3953 73.963 12.4993 64.0915L0.467285 67.8402C2.13129 80.4607 12.4993 94.2058 34.3873 94.2058C53.7153 94.2058 65.7473 81.7103 65.7473 67.9652C65.7473 55.5946 57.2993 46.3478 42.1953 43.099L28.6273 40.225C20.9473 38.6006 16.9793 33.7273 16.9793 27.3546C16.9793 19.1075 24.2753 12.6098 34.5153 12.6098C47.1873 12.6098 52.6913 21.3567 53.7153 27.7295L64.9793 23.8558Z" fill="black"/>
<path d="M291.267 93.956C286.097 93.956 281.363 92.5581 277.068 89.7624C272.851 86.9667 269.471 83.1614 266.925 78.3466C264.379 73.5317 263.106 68.0956 263.106 62.0383C263.106 55.9032 264.379 50.4671 266.925 45.7299C269.55 40.9151 273.05 37.1486 277.426 34.4306C281.88 31.7125 286.852 30.3535 292.341 30.3535C295.603 30.3535 298.586 30.8195 301.291 31.7514C303.996 32.6833 306.342 34.0035 308.331 35.712C310.399 37.3428 312.07 39.2454 313.343 41.4199C314.695 43.5943 315.53 45.9241 315.849 48.4092L313.104 47.4772V31.6349H325.514V92.7911H313.104V78.2301L315.968 77.4147C315.491 79.5115 314.496 81.5694 312.985 83.5885C311.553 85.53 309.683 87.2773 307.376 88.8305C305.149 90.3837 302.643 91.6262 299.859 92.5581C297.154 93.49 294.29 93.956 291.267 93.956ZM294.489 82.8896C298.228 82.8896 301.529 81.9965 304.393 80.2104C307.257 78.4242 309.485 75.978 311.076 72.8716C312.746 69.6876 313.581 66.0765 313.581 62.0383C313.581 58.0777 312.746 54.5442 311.076 51.4378C309.485 48.3315 307.257 45.8853 304.393 44.0991C301.529 42.313 298.228 41.4199 294.489 41.4199C290.83 41.4199 287.568 42.313 284.704 44.0991C281.92 45.8853 279.693 48.3315 278.022 51.4378C276.431 54.5442 275.636 58.0777 275.636 62.0383C275.636 66.0765 276.431 69.6876 278.022 72.8716C279.693 75.978 281.92 78.4242 284.704 80.2104C287.568 81.9965 290.83 82.8896 294.489 82.8896Z" fill="black"/>
<path d="M26.6173 134.175C25.6173 129.675 22.3173 125.475 15.0673 125.475C9.21733 125.475 3.91733 129.975 3.91733 135.475C3.91733 140.525 7.36733 143.525 12.1173 144.625L17.4673 145.875C21.5173 146.825 23.8173 149.225 23.8173 152.525C23.8173 156.375 20.6673 159.375 15.2173 159.375C9.36733 159.375 5.91733 155.325 5.46733 150.725L2.51733 151.675C3.11733 157.075 7.41733 162.225 15.2173 162.225C22.3673 162.225 26.9673 157.725 26.9673 152.275C26.9673 147.275 23.5673 144.075 18.0673 142.775L12.6673 141.525C9.06733 140.675 7.06733 138.475 7.06733 135.275C7.06733 131.125 10.9173 128.275 15.1673 128.275C20.4673 128.275 23.0673 131.525 23.8173 135.175L26.6173 134.175Z" fill="black"/>
<path d="M36.3248 147.225C36.3248 143.325 38.9248 139.775 42.9748 139.775C47.4748 139.775 49.4248 142.725 49.4248 146.475V161.575H52.4248V145.975C52.4248 141.075 49.6248 137.075 43.9748 137.075C40.2748 137.075 37.5748 139.075 36.3248 141.475V125.475H33.3248V161.575H36.3248V147.225Z" fill="black"/>
<path d="M63.1802 161.575V137.725H60.1802V161.575H63.1802ZM59.1802 127.825C59.1802 129.275 60.2802 130.325 61.6802 130.325C63.0802 130.325 64.1802 129.275 64.1802 127.825C64.1802 126.375 63.0802 125.325 61.6802 125.325C60.2802 125.325 59.1802 126.375 59.1802 127.825Z" fill="black"/>
<path d="M82.5666 140.425V137.725H75.9165V132.925C75.9165 129.125 78.0666 127.875 80.4666 127.875C81.5166 127.875 82.2666 128.075 82.7166 128.275V125.575C82.1666 125.325 81.2665 125.075 80.0165 125.075C76.0165 125.075 72.9165 127.725 72.9165 132.775V137.725H68.0165V140.425H72.9165V161.575H75.9165V140.425H82.5666Z" fill="black"/>
<path d="M92.3251 130.175H89.4251V134.225C89.4251 136.675 88.4251 137.725 86.0751 137.725H84.2751V140.425H89.3251V155.125C89.3251 159.475 91.7251 161.825 95.5751 161.825C97.0251 161.825 98.1251 161.575 98.5251 161.375V158.725C98.0751 158.925 97.2251 159.125 96.3751 159.125C93.6751 159.125 92.3251 157.725 92.3251 154.825V140.425H98.5251V137.725H92.3251V130.175Z" fill="black"/>
<path d="M101.881 155.325C102.331 158.475 105.281 162.225 111.131 162.225C116.431 162.225 119.431 158.725 119.431 155.175C119.431 151.725 117.181 149.475 113.231 148.575L109.431 147.725C106.981 147.175 105.681 145.975 105.681 143.925C105.681 141.425 108.081 139.725 110.781 139.725C114.581 139.725 116.231 141.975 116.681 144.275L119.331 143.275C118.681 140.425 116.331 137.125 110.781 137.125C106.431 137.125 102.731 140.275 102.731 144.125C102.731 147.575 105.081 149.675 108.581 150.475L112.431 151.375C114.981 151.975 116.481 153.175 116.481 155.375C116.481 157.875 114.131 159.625 111.181 159.625C107.281 159.625 105.081 157.275 104.631 154.375L101.881 155.325Z" fill="black"/>
<path d="M148.993 162.225C155.644 162.225 160.844 157.125 160.844 149.675C160.844 142.175 155.644 137.125 148.993 137.125C142.293 137.125 137.144 142.175 137.144 149.675C137.144 157.125 142.343 162.225 148.993 162.225ZM140.193 149.675C140.193 143.425 144.293 139.825 148.993 139.825C153.694 139.825 157.794 143.425 157.794 149.675C157.794 155.875 153.694 159.525 148.993 159.525C144.293 159.525 140.193 155.875 140.193 149.675Z" fill="black"/>
<path d="M170.211 147.325C170.211 143.275 172.761 139.825 176.861 139.825C181.461 139.825 183.311 142.775 183.311 146.525V161.575H186.311V146.025C186.311 141.125 183.461 137.125 177.861 137.125C174.211 137.125 171.411 138.975 170.111 141.525V137.725H167.211V161.575H170.211V147.325Z" fill="black"/>
<path d="M208.356 149.625C208.356 143.875 211.656 139.775 216.656 139.775C221.556 139.775 224.706 143.975 224.706 149.625C224.706 155.225 221.556 159.525 216.606 159.525C211.556 159.525 208.356 155.225 208.356 149.625ZM224.706 157.825C224.706 159.525 224.856 160.975 224.956 161.575H227.906C227.856 161.325 227.656 159.575 227.656 157.025V125.475H224.656V142.225C223.806 140.175 221.456 137.075 216.356 137.075C209.756 137.075 205.356 142.625 205.356 149.625C205.356 156.725 209.656 162.225 216.356 162.225C221.006 162.225 223.656 159.325 224.706 156.875V157.825Z" fill="black"/>
<path d="M237.217 147.725C237.517 143.325 240.717 139.775 245.167 139.775C250.167 139.775 253.017 143.275 253.117 147.725H237.217ZM253.467 153.875C252.467 157.025 249.967 159.525 245.667 159.525C240.967 159.525 237.167 155.925 237.117 150.425V150.225H256.217C256.267 149.825 256.267 149.525 256.267 149.125C256.217 142.075 252.167 137.075 245.117 137.075C239.167 137.075 234.067 142.075 234.067 149.575C234.067 157.575 239.367 162.225 245.667 162.225C251.167 162.225 254.767 158.875 256.117 154.825L253.467 153.875Z" fill="black"/>
<path d="M265.475 161.575V146.925C265.475 142.975 268.175 139.725 272.125 139.725C276.175 139.725 278.225 142.525 278.225 146.125V161.575H281.225V146.925C281.225 143.025 283.925 139.725 287.875 139.725C291.875 139.725 293.975 142.525 293.975 146.125V161.575H296.975V145.775C296.975 140.275 293.375 137.075 288.725 137.075C284.925 137.075 281.975 139.025 280.525 142.475C279.575 139.125 276.725 137.075 273.025 137.075C269.325 137.075 266.475 139.175 265.425 141.675V137.725H262.475V161.575H265.475Z" fill="black"/>
<path d="M310.761 162.175C315.111 162.175 317.961 159.725 319.061 157.475C319.061 159.425 319.261 161.025 319.361 161.575H322.311C322.111 160.575 321.961 159.375 321.961 157.475V145.425C321.961 140.875 319.111 137.125 312.911 137.125C307.811 137.125 304.011 140.125 303.461 144.675L306.261 145.275C306.661 141.825 309.161 139.725 312.961 139.725C316.861 139.725 318.961 141.975 318.961 145.125C318.961 146.225 318.511 147.125 316.461 147.425L310.111 148.375C305.761 149.025 302.961 151.375 302.961 155.425C302.961 158.875 305.761 162.175 310.761 162.175ZM311.111 159.625C307.811 159.625 306.011 157.475 306.011 155.275C306.011 152.675 307.761 151.125 310.561 150.725L317.211 149.725C318.161 149.575 318.811 149.275 318.961 149.125V151.825C318.961 156.625 315.661 159.625 311.111 159.625Z" fill="black"/>
<path d="M332.711 147.325C332.711 143.275 335.261 139.825 339.361 139.825C343.961 139.825 345.811 142.775 345.811 146.525V161.575H348.811V146.025C348.811 141.125 345.961 137.125 340.361 137.125C336.711 137.125 333.911 138.975 332.611 141.525V137.725H329.711V161.575H332.711V147.325Z" fill="black"/>
<path d="M357.917 149.625C357.917 143.875 361.217 139.775 366.217 139.775C371.117 139.775 374.267 143.975 374.267 149.625C374.267 155.225 371.117 159.525 366.167 159.525C361.117 159.525 357.917 155.225 357.917 149.625ZM374.267 157.825C374.267 159.525 374.417 160.975 374.517 161.575H377.467C377.417 161.325 377.217 159.575 377.217 157.025V125.475H374.217V142.225C373.367 140.175 371.017 137.075 365.917 137.075C359.317 137.075 354.917 142.625 354.917 149.625C354.917 156.725 359.217 162.225 365.917 162.225C370.567 162.225 373.217 159.325 374.267 156.875V157.825Z" fill="black"/>
</svg>
